<svg xmlns="http://www.w3.org/2000/svg" width="32.677" height="29.986" viewBox="0 0 32.677 29.986">
  <g id="hospital_desactivate" transform="translate(0 -21.085)" opacity="0.23">
    <g id="Grupo_37" data-name="Grupo 37" transform="translate(0 21.085)">
      <g id="Grupo_36" data-name="Grupo 36" transform="translate(0 0)">
        <path id="Trazado_111" data-name="Trazado 111" d="M32.131,32.283,17.155,21.391a1.242,1.242,0,0,0-1.634,0L.545,32.283a1.374,1.374,0,0,0,.817,2.451H4.085V49.709a1.286,1.286,0,0,0,1.361,1.361H27.23a1.286,1.286,0,0,0,1.361-1.361V34.734h2.723A1.374,1.374,0,0,0,32.131,32.283ZM16.338,48.348a8.169,8.169,0,1,1,8.169-8.169A8.193,8.193,0,0,1,16.338,48.348Z" transform="translate(0 -21.085)"/>
      </g>
    </g>
    <g id="Grupo_39" data-name="Grupo 39" transform="translate(10.212 34.053)">
      <g id="Grupo_38" data-name="Grupo 38">
        <path id="Trazado_112" data-name="Trazado 112" d="M168.187,228.369v-4.084H164.1v4.084h-4.084v4.084H164.1v4.084h4.084v-4.084h4.084v-4.084Z" transform="translate(-160.018 -224.285)"/>
      </g>
    </g>
  </g>
</svg>
