<svg xmlns="http://www.w3.org/2000/svg" width="19.5" height="13.002" viewBox="0 0 19.5 13.002">
  <g id="crown" transform="translate(0 -85.296)">
    <path id="Trazado_35" data-name="Trazado 35" d="M17.878,86.921a1.625,1.625,0,0,0-1.625,1.625,1.608,1.608,0,0,0,.081.5l-1.318.838a2.032,2.032,0,0,1-2.664-.427L11.06,87.879a1.607,1.607,0,0,0,.317-.957,1.625,1.625,0,0,0-3.251,0,1.607,1.607,0,0,0,.317.957L7.151,89.459a2.032,2.032,0,0,1-2.663.427l-1.319-.838a1.605,1.605,0,0,0,.081-.5,1.625,1.625,0,1,0-1.767,1.619l.961,5.761a.406.406,0,0,0,.4.34H16.659a.406.406,0,0,0,.4-.34l.961-5.761a1.625,1.625,0,0,0-.142-3.244Z" transform="translate(0 0)" fill="#ffc107"/>
    <ellipse id="Elipse_3" data-name="Elipse 3" cx="6.907" cy="2.032" rx="6.907" ry="2.032" transform="translate(2.844 93.829)" fill="#ffa000"/>
    <path id="Trazado_36" data-name="Trazado 36" d="M71.314,303.5c-3.635,0-7.314-.837-7.314-2.438s3.679-2.438,7.314-2.438,7.314.837,7.314,2.438S74.948,303.5,71.314,303.5Zm0-4.063c-4.268,0-6.5,1.056-6.5,1.625s2.233,1.625,6.5,1.625,6.5-1.056,6.5-1.625S75.581,299.442,71.314,299.442Z" transform="translate(-61.562 -205.207)" fill="#ffd54f"/>
  </g>
</svg>
