<svg xmlns="http://www.w3.org/2000/svg" width="23.606" height="24" viewBox="0 0 23.606 24">
  <g id="ic_location" transform="translate(-0.198)">
    <path id="Trazado_89" data-name="Trazado 89" d="M8.61,12.75l-7.63.01.67-7.22A2.741,2.741,0,0,1,4.39,3.05h.9A6.977,6.977,0,0,0,5,5.06C5,8.17,7.06,11.04,8.61,12.75Z" fill="#f76a8c"/>
    <path id="Trazado_90" data-name="Trazado 90" d="M13.39,14.75,6.96,24H2.95A2.745,2.745,0,0,1,.21,20.99l.58-6.23,10.08-.01Z" fill="#f76a8c"/>
    <path id="Trazado_91" data-name="Trazado 91" d="M15.4,12.75C16.94,11.04,19,8.17,19,5.06a6.977,6.977,0,0,0-.29-2.01h.9a2.741,2.741,0,0,1,2.74,2.49l.67,7.2Z" fill="#f76a8c"/>
    <path id="Trazado_92" data-name="Trazado 92" d="M23.207,14.738l-7.384.011L9.4,24H21.054a2.751,2.751,0,0,0,2.739-3.006Z" fill="#f76a8c"/>
    <path id="Trazado_93" data-name="Trazado 93" d="M12,0A5.037,5.037,0,0,0,7,5.063c0,3.853,4.328,7.6,4.513,7.757a.749.749,0,0,0,.974,0C12.672,12.662,17,8.915,17,5.063A5.037,5.037,0,0,0,12,0Zm0,7a2,2,0,1,1,2-2A2,2,0,0,1,12,7Z" fill="#f76a8c"/>
  </g>
</svg>
