<svg xmlns="http://www.w3.org/2000/svg" width="34.06" height="31.077" viewBox="0 0 34.06 31.077">
  <g id="ic_logo" transform="translate(-147.552 -50.577)">
    <g id="supermarket" transform="translate(147.552 50.577)">
      <path id="Trazado_1" data-name="Trazado 1" d="M138.252,77.651l-.5,1.485a3.243,3.243,0,0,1-4.094,2.036l-1.209-.406L124,77.93a3.243,3.243,0,0,1-2.037-4.094l.5-1.485a3.243,3.243,0,0,1,4.094-2.037l9.659,3.242A3.243,3.243,0,0,1,138.252,77.651Z" transform="translate(-113.695 -66.972)" fill="#78b9eb"/>
      <path id="Trazado_2" data-name="Trazado 2" d="M133.114,82.241l-.662.571L124,79.977a3.243,3.243,0,0,1-2.037-4.094l.5-1.485a3.234,3.234,0,0,1,2.116-2.058Z" transform="translate(-113.696 -69.019)" fill="#5aaae7"/>
      <path id="Trazado_3" data-name="Trazado 3" d="M28.849,63.947,23.213,68.8l-.851.733L11.976,57.489l.852-.734L18.463,51.9Z" transform="translate(-11.179 -49.936)" fill="#c70024"/>
      <path id="Trazado_4" data-name="Trazado 4" d="M40.8,63.947,35.165,68.8,24.78,56.755,30.416,51.9Z" transform="translate(-23.132 -49.936)" fill="#ff0c38"/>
      <path id="Trazado_5" data-name="Trazado 5" d="M7.878,41.314l-6.44,5.55a.785.785,0,0,1-1.1-.082l-.146-.169a.785.785,0,0,1,.082-1.1l.509-.439,5.93-5.111a.784.784,0,0,1,1.094.072l.01.01.145.169A.785.785,0,0,1,7.878,41.314Z" transform="translate(0 -38.616)" fill="#a5001e"/>
      <path id="Trazado_6" data-name="Trazado 6" d="M18.751,40.032l-5.93,5.111a.784.784,0,0,1-1.093-.072l5.93-5.111A.784.784,0,0,1,18.751,40.032Z" transform="translate(-10.947 -38.617)" fill="#c70024"/>
      <circle id="Elipse_1" data-name="Elipse 1" cx="3.031" cy="3.031" r="3.031" transform="translate(5.552 7.02)" fill="#a5001e"/>
      <path id="Trazado_7" data-name="Trazado 7" d="M99.4,146.439l-.519-.409.171-.7a.516.516,0,1,0-1-.244l-.116.475a2.907,2.907,0,0,0-.679-.083,2.385,2.385,0,0,0-2.2,1.436.516.516,0,0,0,.153.653,2.6,2.6,0,0,0,1.43.467A2.154,2.154,0,0,0,98.442,147l.315.248a.516.516,0,0,0,.639-.812ZM96.634,147a1.3,1.3,0,0,1-.366-.056,1.264,1.264,0,0,1,.981-.435,1.753,1.753,0,0,1,.259.02A1.116,1.116,0,0,1,96.634,147Z" transform="translate(-88.674 -136.554)" fill="#ffcd00"/>
      <path id="Trazado_8" data-name="Trazado 8" d="M251.677,25.5l-7.1-2.988a1.193,1.193,0,0,0-1.562.637l-.987,2.343h0l-2.9,2.318a2.544,2.544,0,0,0-.277.257,2.607,2.607,0,0,0-.5.769l-2.371,5.632a1.762,1.762,0,0,0,.94,2.307l1.672.7h0l8.216,3.459a1.762,1.762,0,0,0,2.308-.94l2.373-5.636a2.611,2.611,0,0,0,.192-1.263l-.356-3.694.986-2.343A1.193,1.193,0,0,0,251.677,25.5Z" transform="translate(-220.155 -22.421)" fill="#ff728b"/>
      <path id="Trazado_9" data-name="Trazado 9" d="M285.4,103.544l-8.216-3.459,3.055-7.255a2.611,2.611,0,0,1,.777-1.027l2.9-2.318,6,2.526.356,3.694a2.61,2.61,0,0,1-.192,1.263l-2.373,5.636A1.762,1.762,0,0,1,285.4,103.544Z" transform="translate(-258.749 -85.024)" fill="#ff3f62"/>
      <path id="Trazado_10" data-name="Trazado 10" d="M251.328,72.542l-2.85,2.357a2.543,2.543,0,0,0-.259.247,2.59,2.59,0,0,0-.482.751l-3.064,7.277-7.749-3.262a1.762,1.762,0,0,1-.94-2.307l2.371-5.632a2.607,2.607,0,0,1,.5-.769,2.531,2.531,0,0,1,.277-.257l2.9-2.318Z" transform="translate(-220.156 -65.555)" fill="#ff728b"/>
      <path id="Trazado_11" data-name="Trazado 11" d="M263.157,111.287a2.592,2.592,0,0,0-.482.751l-1.454,3.454-9.373-3.946,1.445-3.432a2.606,2.606,0,0,1,.5-.769Z" transform="translate(-235.094 -101.695)" fill="#ffa5b5"/>
      <path id="Trazado_12" data-name="Trazado 12" d="M375.563,131.149l-.357-3.693-2.849,2.358a2.52,2.52,0,0,0-.26.247,2.6,2.6,0,0,0-.483.751l-3.063,7.277,2.138.9a1.762,1.762,0,0,0,2.308-.94l2.373-5.636A2.611,2.611,0,0,0,375.563,131.149Z" transform="translate(-344.035 -120.469)" fill="#ff0c38"/>
      <g id="Grupo_1" data-name="Grupo 1" transform="translate(15.689 3.074)">
        <path id="Trazado_13" data-name="Trazado 13" d="M321.153,151.522a.847.847,0,0,1-1.127.839l-.038-.015-.038-.017a.847.847,0,0,1-.188-1.392l.987-.89a.21.21,0,0,1,.351.148Z" transform="translate(-313.915 -144.578)" fill="#ff3f62"/>
        <path id="Trazado_14" data-name="Trazado 14" d="M243.918,69.418l-.03.074-2.9,2.318a2.526,2.526,0,0,0-.277.258,2.611,2.611,0,0,0-.5.769l-3,7.192-.289-.121a1.761,1.761,0,0,1-.94-2.307l2.371-5.632a2.608,2.608,0,0,1,.5-.769,2.523,2.523,0,0,1,.277-.258l2.9-2.318h0Z" transform="translate(-235.843 -68.623)" fill="#ff3f62"/>
      </g>
      <path id="Trazado_15" data-name="Trazado 15" d="M255.71,108.152c-.021.02-.04.041-.059.061a2.611,2.611,0,0,0-.5.769l-1.4,3.363-1.9-.8,1.445-3.432a2.609,2.609,0,0,1,.5-.769Z" transform="translate(-235.096 -101.696)" fill="#ff728b"/>
      <path id="Trazado_16" data-name="Trazado 16" d="M338.159,29.408l-9.3-3.914.987-2.343a1.193,1.193,0,0,1,1.562-.637l7.1,2.988a1.193,1.193,0,0,1,.637,1.562Z" transform="translate(-306.987 -22.42)" fill="#ff3f62"/>
      <path id="Trazado_17" data-name="Trazado 17" d="M332.172,22.831l-1.416,3.457-1.887-.795.986-2.343a1.194,1.194,0,0,1,1.563-.637Z" transform="translate(-306.991 -22.419)" fill="#ff0c38"/>
      <path id="Trazado_18" data-name="Trazado 18" d="M58.064,238.124l-4.921,15.129a1.567,1.567,0,0,1-1.49,1.082H34.18a1.567,1.567,0,0,1-1.488-1.076l-5-15.136Z" transform="translate(-25.846 -223.775)" fill="#7ed63e"/>
      <path id="Trazado_19" data-name="Trazado 19" d="M99.437,238.124l-4.921,15.129a1.567,1.567,0,0,1-1.49,1.082H78.5a1.567,1.567,0,0,1-1.488-1.076l-5-15.136Z" transform="translate(-67.219 -223.775)" fill="#a4e276"/>
      <path id="Trazado_20" data-name="Trazado 20" d="M51.239,230.574a.517.517,0,0,0-.418-.213h-27.4a.516.516,0,0,0,0,1.033H50.111l-1.861,5.723H45.2l.835-3.921a.516.516,0,0,0-1.01-.215l-.88,4.136H40.662l.353-3.983a.516.516,0,0,0-1.029-.091l-.361,4.074H36.15v-4.029a.516.516,0,1,0-1.033,0v4.029H31.758l-.361-4.074a.516.516,0,0,0-1.029.091l.353,3.983h-.632a.516.516,0,0,0,0,1.033h.723l.325,3.674H28.244l-.782-3.674h.562a.516.516,0,0,0,0-1.033h-.782l-.88-4.136a.516.516,0,0,0-1.01.215l.835,3.921H23.053l-1.892-5.723h.2a.516.516,0,0,0,0-1.033h-.91a.516.516,0,0,0-.49.678l5,15.136a2.08,2.08,0,0,0,1.978,1.43H44.411a2.078,2.078,0,0,0,1.981-1.439l1.533-4.713a.516.516,0,1,0-.982-.319l-.225.69H44.195l.782-3.674h2.937l-.331,1.019a.516.516,0,1,0,.982.319l2.749-8.451A.517.517,0,0,0,51.239,230.574ZM39.533,238.15l-.325,3.674H36.15V238.15Zm.291,8.423.329-3.716h2.765l-.791,3.716Zm-1.037,0H36.15v-3.716h2.966Zm-6.193,0-.329-3.716h2.851v3.716Zm-.746-8.423h3.268v3.674H32.175Zm-.62,4.707.329,3.716h-2.3l-.791-3.716Zm-4.823-4.707.782,3.674h-2.58l-1.214-3.674Zm-.466,7.7-.99-2.995h2.458l.791,3.716H26.937A1.049,1.049,0,0,1,25.94,245.851Zm20.442-2.995-.972,2.99a1.048,1.048,0,0,1-1,.726H43.184l.791-3.716h2.407Zm-3.244-1.033H40.245l.325-3.674h3.351Z" transform="translate(-18.604 -216.528)" fill="#5eac24"/>
      <path id="Trazado_21" data-name="Trazado 21" d="M34.06,207.1a2.217,2.217,0,0,1-2.211,2.21H2.211a2.211,2.211,0,0,1,0-4.421H31.849a2.218,2.218,0,0,1,2.207,2.088C34.058,207.017,34.06,207.059,34.06,207.1Z" transform="translate(0 -192.751)" fill="#4e901e"/>
      <path id="Trazado_22" data-name="Trazado 22" d="M65.091,206.976H35.454a2.217,2.217,0,0,1-2.207-2.088H62.884A2.218,2.218,0,0,1,65.091,206.976Z" transform="translate(-31.035 -192.75)" fill="#5eac24"/>
      <path id="Trazado_23" data-name="Trazado 23" d="M236.456,47.217v10.5a1.5,1.5,0,1,1-3,0v-10.5a1.5,1.5,0,0,1,2.559-1.058l.045.048A1.491,1.491,0,0,1,236.456,47.217Z" transform="translate(-217.927 -44.168)" fill="#47821c"/>
      <path id="Trazado_24" data-name="Trazado 24" d="M267.441,54.067v10.5a.583.583,0,1,1-.791,0v-10.5a.583.583,0,1,1,.791,0Z" transform="translate(-248.912 -51.018)" fill="#4e901e"/>
      <circle id="Elipse_2" data-name="Elipse 2" cx="0.445" cy="0.445" r="0.445" transform="translate(16.585 13.142)" fill="#a4e276"/>
    </g>
  </g>
</svg>
