<svg xmlns="http://www.w3.org/2000/svg" width="28.334" height="22.01" viewBox="0 0 28.334 22.01">
  <g id="members" transform="translate(0 -57.142)">
    <g id="Grupo_12" data-name="Grupo 12" transform="translate(3.424 57.142)">
      <g id="Grupo_11" data-name="Grupo 11">
        <path id="Trazado_79" data-name="Trazado 79" d="M67.045,57.142a5.493,5.493,0,1,0,5.172,5.483A5.341,5.341,0,0,0,67.045,57.142Z" transform="translate(-61.873 -57.142)" fill="#f76a8c"/>
      </g>
    </g>
    <g id="Grupo_14" data-name="Grupo 14" transform="translate(15.918 57.927)">
      <g id="Grupo_13" data-name="Grupo 13" transform="translate(0 0)">
        <path id="Trazado_80" data-name="Trazado 80" d="M292.073,71.321h-.035a4.29,4.29,0,0,0-3.148,1.423,4.9,4.9,0,0,0,.054,6.6,4.292,4.292,0,0,0,3.135,1.371h.036a4.291,4.291,0,0,0,3.148-1.423,4.815,4.815,0,0,0,1.253-3.312A4.582,4.582,0,0,0,292.073,71.321Z" transform="translate(-287.637 -71.321)" fill="#f76a8c"/>
      </g>
    </g>
    <g id="Grupo_16" data-name="Grupo 16" transform="translate(14.94 68.222)">
      <g id="Grupo_15" data-name="Grupo 15" transform="translate(0 0)">
        <path id="Trazado_81" data-name="Trazado 81" d="M275.593,257.358h-.429a7.734,7.734,0,0,0-5.2,2.007,9.985,9.985,0,0,1,3.9,7.408h9.5v-1.653A7.771,7.771,0,0,0,275.593,257.358Z" transform="translate(-269.96 -257.358)" fill="#f76a8c"/>
      </g>
    </g>
    <g id="Grupo_18" data-name="Grupo 18" transform="translate(0 69.825)">
      <g id="Grupo_17" data-name="Grupo 17" transform="translate(0 0)">
        <path id="Trazado_82" data-name="Trazado 82" d="M17.175,294.13a8.336,8.336,0,0,0-8.32-7.812H8.338A8.337,8.337,0,0,0,0,294.656v.989H17.191v-.989Q17.191,294.391,17.175,294.13Z" transform="translate(0 -286.318)" fill="#f76a8c"/>
      </g>
    </g>
  </g>
</svg>
