<svg xmlns="http://www.w3.org/2000/svg" width="29.94" height="42.582" viewBox="0 0 29.94 42.582">
  <g id="ic_pin" transform="translate(-76)">
    <path id="Trazado_1" data-name="Trazado 1" d="M90.97,0A14.982,14.982,0,0,0,76,14.97a14.762,14.762,0,0,0,2.246,7.859l11.71,19.163a1.182,1.182,0,0,0,.849.574,1.242,1.242,0,0,0,1.272-.6L103.82,22.63a14.764,14.764,0,0,0,2.121-7.66A14.982,14.982,0,0,0,90.97,0Zm0,22.455a7.485,7.485,0,1,1,7.485-7.485A7.475,7.475,0,0,1,90.97,22.455Z" fill="#fd003a"/>
    <path id="Trazado_2" data-name="Trazado 2" d="M256,0V7.485a7.485,7.485,0,1,1,0,14.97V42.581a1.235,1.235,0,0,0,1.106-.613L268.849,22.63a14.764,14.764,0,0,0,2.121-7.66A14.982,14.982,0,0,0,256,0Z" transform="translate(-165.03)" fill="#e50027"/>
  </g>
</svg>
