<svg xmlns="http://www.w3.org/2000/svg" width="28.672" height="24.322" viewBox="0 0 28.672 24.322">
  <g id="ic_team" transform="translate(0 -38.84)">
    <g id="Grupo_25" data-name="Grupo 25" transform="translate(22.316 51.971)">
      <g id="Grupo_24" data-name="Grupo 24" transform="translate(0 0)">
        <path id="Trazado_100" data-name="Trazado 100" d="M400.711,273.32h-2.217a5.768,5.768,0,0,1,.349,1.983v8.381a2.471,2.471,0,0,1-.142.828h3.666a2.486,2.486,0,0,0,2.483-2.483v-4.569A4.144,4.144,0,0,0,400.711,273.32Z" transform="translate(-398.494 -273.32)" fill="#f8dc88"/>
      </g>
    </g>
    <g id="Grupo_27" data-name="Grupo 27" transform="translate(0 51.971)">
      <g id="Grupo_26" data-name="Grupo 26" transform="translate(0 0)">
        <path id="Trazado_101" data-name="Trazado 101" d="M6.007,275.3a5.768,5.768,0,0,1,.35-1.983H4.139A4.144,4.144,0,0,0,0,277.46v4.569a2.486,2.486,0,0,0,2.483,2.483H6.149a2.472,2.472,0,0,1-.142-.828Z" transform="translate(0 -273.321)" fill="#f8dc88"/>
      </g>
    </g>
    <g id="Grupo_29" data-name="Grupo 29" transform="translate(7.663 49.815)">
      <g id="Grupo_28" data-name="Grupo 28" transform="translate(0 0)">
        <path id="Trazado_102" data-name="Trazado 102" d="M146.037,234.815h-5.069a4.144,4.144,0,0,0-4.139,4.139v8.381a.828.828,0,0,0,.828.828h11.692a.828.828,0,0,0,.828-.828v-8.381A4.144,4.144,0,0,0,146.037,234.815Z" transform="translate(-136.829 -234.815)" fill="#f8dc88"/>
      </g>
    </g>
    <g id="Grupo_31" data-name="Grupo 31" transform="translate(9.359 38.84)">
      <g id="Grupo_30" data-name="Grupo 30" transform="translate(0 0)">
        <path id="Trazado_103" data-name="Trazado 103" d="M172.092,38.84a4.977,4.977,0,1,0,4.978,4.978A4.983,4.983,0,0,0,172.092,38.84Z" transform="translate(-167.114 -38.84)" fill="#f8dc88"/>
      </g>
    </g>
    <g id="Grupo_33" data-name="Grupo 33" transform="translate(1.873 43.48)">
      <g id="Grupo_32" data-name="Grupo 32" transform="translate(0 0)">
        <path id="Trazado_104" data-name="Trazado 104" d="M37.166,121.689a3.721,3.721,0,1,0,3.723,3.723A3.727,3.727,0,0,0,37.166,121.689Z" transform="translate(-33.443 -121.689)" fill="#f8dc88"/>
      </g>
    </g>
    <g id="Grupo_35" data-name="Grupo 35" transform="translate(19.354 43.48)">
      <g id="Grupo_34" data-name="Grupo 34" transform="translate(0 0)">
        <path id="Trazado_105" data-name="Trazado 105" d="M349.33,121.689a3.723,3.723,0,1,0,3.723,3.723A3.727,3.727,0,0,0,349.33,121.689Z" transform="translate(-345.607 -121.689)" fill="#f8dc88"/>
      </g>
    </g>
  </g>
</svg>
