<svg xmlns="http://www.w3.org/2000/svg" width="44.657" height="42.075" viewBox="0 0 44.657 42.075">
  <g id="ic_warning" transform="translate(0 -14.8)">
    <path id="Trazado_54" data-name="Trazado 54" d="M43.738,46.984,27.954,17.992a6.553,6.553,0,0,0-11.252,0L.919,46.984a6.534,6.534,0,0,0-.052,6.594,6.456,6.456,0,0,0,5.678,3.3H38.112a6.456,6.456,0,0,0,5.678-3.3A6.534,6.534,0,0,0,43.738,46.984Z" transform="translate(0 0)" fill="#495a79"/>
    <path id="Trazado_55" data-name="Trazado 55" d="M277.461,53.578a6.456,6.456,0,0,1-5.678,3.3H256V14.8a6.533,6.533,0,0,1,5.626,3.192l15.783,28.992A6.534,6.534,0,0,1,277.461,53.578Z" transform="translate(-233.672 0)" fill="#42516d"/>
    <path id="Trazado_56" data-name="Trazado 56" d="M68.872,75.7,53.089,46.71a3.937,3.937,0,0,0-6.751,0L30.555,75.7a3.942,3.942,0,0,0,3.376,5.94H65.5a3.942,3.942,0,0,0,3.375-5.94Z" transform="translate(-27.385 -27.383)" fill="#ffde33"/>
    <path id="Trazado_57" data-name="Trazado 57" d="M275.185,79.653a3.862,3.862,0,0,1-3.4,1.989H256V44.8a3.886,3.886,0,0,1,3.375,1.91L275.159,75.7A3.886,3.886,0,0,1,275.185,79.653Z" transform="translate(-233.672 -27.383)" fill="#ffbc33"/>
    <g id="Grupo_6" data-name="Grupo 6" transform="translate(19.712 25.476)">
      <path id="Trazado_58" data-name="Trazado 58" d="M228.617,382.433a2.617,2.617,0,1,1,2.617-2.617A2.62,2.62,0,0,1,228.617,382.433Z" transform="translate(-226 -356.267)" fill="#495a79"/>
      <path id="Trazado_59" data-name="Trazado 59" d="M231.233,152.9a2.617,2.617,0,1,1-5.233,0V139.817a2.617,2.617,0,1,1,5.233,0Z" transform="translate(-226 -137.2)" fill="#495a79"/>
    </g>
    <g id="Grupo_7" data-name="Grupo 7" transform="translate(22.328 25.476)">
      <path id="Trazado_60" data-name="Trazado 60" d="M258.617,379.817A2.62,2.62,0,0,0,256,377.2v5.233A2.62,2.62,0,0,0,258.617,379.817Z" transform="translate(-256 -356.267)" fill="#42516d"/>
      <path id="Trazado_61" data-name="Trazado 61" d="M258.617,152.9V139.817A2.62,2.62,0,0,0,256,137.2v18.316A2.62,2.62,0,0,0,258.617,152.9Z" transform="translate(-256 -137.2)" fill="#42516d"/>
    </g>
  </g>
</svg>
