<svg xmlns="http://www.w3.org/2000/svg" width="28.231" height="28.232" viewBox="0 0 28.231 28.232">
  <g id="shop_desactivate" transform="translate(0 0)" opacity="0.23">
    <path id="Trazado_108" data-name="Trazado 108" d="M25.788,23.077V13.744a4.216,4.216,0,0,0,2.443-3.837c0-.029,0-.058,0-.087a.815.815,0,0,0-.132-.5v0L26.2,6.412l-.012-.018L24.7,4.1V2.443A2.446,2.446,0,0,0,22.259,0H5.972A2.446,2.446,0,0,0,3.528,2.443V4.1L.134,9.323v0A.811.811,0,0,0,0,9.806c0,.034,0,.067,0,.1a4.216,4.216,0,0,0,2.443,3.837v9.333a2.579,2.579,0,0,0,.136,5.154H25.652a2.579,2.579,0,0,0,.136-5.154ZM24.75,12.4q-.079.022-.158.039h0a2.432,2.432,0,0,1-.317.044l-.028,0c-.051,0-.1.005-.152.005s-.08,0-.12,0l-.038,0-.081-.006-.043,0-.075-.01-.043-.007-.078-.014-.037-.007-.108-.026h0l-.11-.032-.034-.011-.075-.026-.039-.015-.069-.028-.038-.017-.071-.033L23,12.227l-.093-.049-.007,0c-.033-.019-.066-.038-.1-.058l-.028-.018-.067-.044-.033-.023-.06-.044-.033-.025-.06-.049-.028-.023-.076-.068-.008-.008c-.028-.026-.055-.053-.081-.079l-.022-.023-.055-.06-.027-.03-.048-.057-.026-.032-.047-.061-.022-.03-.056-.081-.009-.013q-.031-.048-.061-.1l-.016-.028c-.014-.024-.027-.048-.04-.072l-.019-.037c-.012-.022-.023-.044-.034-.067l-.018-.039c-.011-.023-.021-.047-.031-.07l-.016-.037c-.012-.03-.023-.059-.034-.089l-.007-.02c-.013-.036-.025-.073-.037-.11l-.009-.033-.017-.061h4.845A2.556,2.556,0,0,1,24.75,12.4ZM19.836,10.68q-.017.056-.037.111l-.007.02c-.011.03-.022.06-.034.089l-.016.037-.031.07-.019.039-.033.067-.019.037c-.013.024-.026.048-.04.072l-.016.028c-.02.033-.04.065-.061.1l-.009.013c-.018.027-.037.054-.056.081l-.022.03-.047.061-.026.032-.048.057-.027.03-.055.06-.022.023c-.026.027-.053.054-.081.08l-.008.007c-.025.023-.05.046-.076.068l-.028.023-.06.049-.033.025-.06.044-.033.023-.067.044-.028.018q-.048.03-.1.058l-.007,0-.093.049-.033.016-.071.033-.038.017-.069.028-.039.015-.075.026-.034.011-.11.032h0l-.108.026-.037.007-.078.014-.043.006-.075.01-.043,0-.081.006-.038,0c-.04,0-.079,0-.12,0s-.08,0-.12,0l-.038,0-.081-.006-.043,0-.076-.01-.043-.006-.078-.014-.037-.007-.108-.026h0l-.11-.032-.034-.011-.075-.026-.039-.015-.069-.028-.038-.017-.071-.033-.033-.016-.093-.049-.007,0q-.049-.028-.1-.058l-.028-.018-.067-.044-.033-.023-.06-.044-.033-.025-.06-.049-.028-.023q-.039-.033-.076-.068l-.008-.007q-.041-.039-.081-.08l-.022-.023-.056-.06-.026-.03-.048-.057-.026-.032-.047-.061-.022-.03c-.019-.026-.038-.054-.056-.081l-.009-.013c-.021-.032-.041-.064-.061-.1l-.016-.028-.04-.072-.019-.037-.034-.067-.018-.039c-.011-.023-.021-.047-.031-.07l-.016-.037c-.012-.029-.023-.059-.034-.089l-.008-.02q-.019-.055-.036-.111l-.009-.033c-.006-.02-.011-.04-.017-.061h4.844l-.017.061-.009.033Zm-6.651,0q-.017.056-.036.111l-.008.02c-.011.03-.022.06-.034.089l-.016.037c-.01.023-.02.047-.031.07l-.018.039-.034.067-.019.037-.04.072-.016.028c-.02.033-.04.065-.061.1l-.009.013c-.018.027-.037.054-.056.081l-.022.03-.047.061-.026.032-.048.057-.026.03-.056.06-.022.023c-.026.027-.054.054-.081.08l-.008.007c-.025.023-.05.046-.076.068l-.028.023-.06.049-.033.025-.06.044-.033.023-.067.044-.028.018q-.048.03-.1.058l-.007,0-.093.049-.033.016-.071.033-.038.017-.069.028-.039.015-.075.026-.034.011-.11.032h0l-.108.026-.037.007-.078.014-.043.006-.076.01-.043,0-.081.006-.038,0c-.04,0-.079,0-.12,0s-.08,0-.12,0l-.038,0-.081-.006-.043,0-.075-.01-.043-.006-.078-.014-.037-.007-.108-.026h0l-.11-.032-.034-.011-.075-.026L9.9,12.32l-.069-.028L9.8,12.276l-.071-.033-.033-.016L9.6,12.178l-.007,0q-.05-.028-.1-.058L9.467,12.1,9.4,12.054l-.033-.023-.06-.044-.033-.025-.06-.049-.028-.023q-.039-.033-.076-.068L9.1,11.815c-.028-.026-.055-.053-.081-.08L9,11.712l-.055-.06-.027-.03-.048-.057-.026-.032-.047-.061-.022-.03c-.019-.026-.038-.054-.056-.081l-.009-.013c-.021-.032-.041-.064-.061-.1l-.016-.028c-.014-.024-.027-.048-.04-.072l-.019-.037-.033-.067-.019-.039-.031-.07L8.472,10.9c-.012-.029-.023-.059-.034-.089l-.007-.02q-.019-.055-.037-.111l-.009-.033c-.006-.02-.011-.04-.017-.061h4.844l-.017.061c0,.011-.006.022-.009.033ZM5.026,4.787a.815.815,0,0,0,.132-.444v-1.9a.815.815,0,0,1,.814-.814H22.259a.815.815,0,0,1,.814.814v1.9a.815.815,0,0,0,.132.444l2.711,4.171H2.314Zm-3.309,5.8H6.561l-.017.061-.009.033q-.017.056-.037.111l-.007.02c-.011.03-.022.06-.034.089l-.016.037-.031.07-.018.039q-.016.034-.034.067l-.019.037c-.013.024-.026.048-.04.072l-.016.028c-.02.033-.04.065-.061.1l-.009.013c-.018.027-.037.054-.056.081l-.022.03-.047.061-.026.032-.048.057-.027.03-.055.06-.022.023c-.026.027-.053.054-.081.08l-.008.007c-.025.023-.05.046-.076.068l-.028.023-.06.049-.033.025-.06.044-.033.023-.067.044-.028.018q-.048.03-.1.058l-.007,0-.093.049-.033.016-.071.033-.038.017-.069.028-.039.015-.075.026-.034.011-.11.032h0l-.108.026-.037.007-.078.014L4.5,12.46l-.075.01-.043,0-.081.006-.038,0q-.059,0-.12,0c-.051,0-.1,0-.152-.005l-.028,0a2.47,2.47,0,0,1-.317-.044h0q-.079-.017-.158-.039a2.556,2.556,0,0,1-1.764-1.81ZM4.331,14.11l.035,0q.091-.005.182-.014l.035,0c.062-.007.123-.014.185-.024h.007c.06-.009.119-.02.178-.033l.032-.006c.058-.012.116-.026.173-.04l.035-.009c.058-.016.116-.032.174-.05l.013,0c.055-.018.109-.037.163-.056l.03-.011c.055-.02.109-.042.162-.065l.034-.015c.054-.024.108-.048.16-.074l.016-.008c.05-.025.1-.051.149-.078l.026-.014c.051-.028.1-.057.15-.087l.032-.02c.049-.031.1-.062.146-.1l.018-.013c.045-.031.09-.064.134-.1l.022-.017q.069-.053.135-.108l.028-.024c.044-.037.088-.076.131-.115l.018-.017c.04-.038.08-.076.119-.115l.017-.017q.061-.062.12-.127l.024-.027q.058-.065.113-.132l.017-.021c.035-.044.07-.088.1-.133l.012-.016.006-.008.006.008.012.016c.033.045.068.09.1.133l.017.021q.055.068.113.132l.024.027q.058.065.12.127l.017.017c.039.039.078.078.119.115l.018.017c.043.039.086.078.131.115l.028.024q.067.056.135.108l.022.017c.044.033.089.066.134.1l.018.013c.048.033.1.064.146.1l.032.02c.049.03.1.059.15.087l.026.014q.074.04.149.078L9,13.7c.053.026.106.05.16.074l.034.015q.08.034.162.065l.03.011c.054.02.108.039.163.056l.013,0c.057.018.115.034.174.05l.035.009c.057.015.115.028.173.04l.032.006c.059.012.118.023.178.033h.007c.061.01.123.017.185.024l.035,0q.09.009.182.014l.035,0c.064,0,.128,0,.192,0s.128,0,.192,0l.034,0q.091-.005.182-.014l.035,0c.062-.007.124-.014.185-.024h.007c.06-.009.119-.02.178-.033l.032-.006q.087-.018.173-.04l.035-.009c.058-.016.116-.032.174-.05l.013,0c.055-.018.109-.037.163-.056l.03-.011q.082-.031.162-.065l.034-.015c.054-.024.108-.048.161-.074l.016-.008q.075-.037.149-.078l.026-.014c.05-.028.1-.057.149-.087l.032-.02c.049-.031.1-.062.146-.1l.018-.013c.045-.031.09-.064.134-.1l.022-.017c.046-.035.091-.071.135-.108l.028-.024c.044-.037.088-.076.131-.115l.018-.017c.04-.038.08-.076.119-.115l.017-.017c.041-.042.08-.084.119-.127l.024-.027c.039-.043.076-.087.113-.132l.016-.021c.035-.044.07-.088.1-.133l.012-.016.006-.008.006.008.012.016q.05.068.1.133l.016.021c.037.045.075.089.113.132l.024.027c.039.043.079.086.119.127l.017.017c.039.039.079.078.119.115l.018.017c.043.039.086.078.131.115l.028.024q.067.056.135.108l.022.017c.044.033.089.066.134.1l.018.013c.048.033.1.064.146.1l.032.02c.049.03.1.059.149.087l.026.014q.074.04.149.078l.016.008c.053.026.107.05.161.074l.034.015q.08.034.162.065l.03.011c.054.02.108.039.163.056l.013,0c.057.018.115.034.174.05l.035.009q.086.022.173.04l.032.006c.059.012.118.023.178.033h.007c.061.01.123.017.185.024l.035,0q.09.009.182.014l.034,0c.064,0,.128,0,.192,0s.128,0,.192,0l.035,0q.091-.005.182-.014l.035,0c.062-.007.124-.014.185-.024h.007c.06-.009.119-.02.178-.033l.032-.006q.087-.018.173-.04l.035-.009c.058-.016.116-.032.173-.05l.013,0c.055-.018.109-.037.163-.056l.03-.011q.082-.031.162-.065l.034-.015c.054-.024.108-.048.16-.074l.017-.008q.075-.037.149-.078l.026-.014c.051-.028.1-.057.15-.087l.032-.02c.049-.031.1-.062.146-.1l.018-.013c.045-.031.09-.064.134-.1l.022-.017q.069-.053.135-.108l.029-.024c.044-.037.088-.076.13-.115l.018-.017c.04-.038.08-.076.119-.115l.017-.017q.061-.062.12-.127l.024-.027q.058-.065.113-.132l.017-.021c.035-.044.07-.088.1-.133l.012-.016.006-.008.006.008.012.016q.05.068.1.133l.017.021q.055.068.113.132l.025.027q.058.065.119.127l.017.017c.039.039.078.078.119.115l.018.017c.043.039.086.078.131.115l.028.024q.067.056.135.108l.022.017c.044.033.089.066.134.1l.018.013c.048.033.1.064.146.1l.032.02c.049.03.1.059.15.087l.026.014c.049.027.1.053.149.078l.016.008c.053.026.106.05.161.074l.034.015c.054.023.107.045.162.065l.03.011c.054.02.108.039.163.056l.013,0c.057.018.115.034.174.05l.035.009q.086.022.173.04l.032.006c.059.012.118.023.178.033h.007c.061.01.123.017.185.024l.035,0q.09.009.182.014l.035,0c.064,0,.128,0,.192,0h.068v8.959H13.3V17.916a2.446,2.446,0,0,0-2.443-2.443H8.686a2.446,2.446,0,0,0-2.443,2.443v5.158H4.071V14.115h.068c.064,0,.128,0,.192,0Zm7.341,8.963h-3.8V17.916a.815.815,0,0,1,.814-.814h2.172a.815.815,0,0,1,.814.814ZM25.652,26.6H2.578a.95.95,0,1,1,0-1.9H25.652a.95.95,0,0,1,0,1.9Zm0,0"/>
    <path id="Trazado_109" data-name="Trazado 109" d="M273.213,285.5h2.172a2.443,2.443,0,1,0,0-4.886h-2.172a2.443,2.443,0,1,0,0,4.886Zm0-3.258h2.172a.814.814,0,0,1,0,1.629h-2.172a.814.814,0,1,1,0-1.629Zm0,0" transform="translate(-255.84 -265.144)"/>
    <path id="Trazado_110" data-name="Trazado 110" d="M128.976,64.814a.814.814,0,0,0-.814-.814H114.045a.814.814,0,0,0,0,1.629h14.116A.814.814,0,0,0,128.976,64.814Zm0,0" transform="translate(-106.988 -60.472)"/>
  </g>
</svg>
