<svg xmlns="http://www.w3.org/2000/svg" width="27.055" height="27.017" viewBox="0 0 27.055 27.017">
  <g id="stand_activate" transform="translate(0 -0.338)">
    <g id="Grupo_41" data-name="Grupo 41" transform="translate(0 0.338)">
      <g id="Grupo_40" data-name="Grupo 40" transform="translate(0 0)">
        <path id="Trazado_113" data-name="Trazado 113" d="M26.057,231.762h0v-5.537a2.858,2.858,0,0,1-1.8.081v5.456H22.065v-3.469a.593.593,0,0,0-.593-.593h-2a.593.593,0,0,0-.593.593v3.469H16.212v-.556a.593.593,0,0,0-.593-.593H13.352a.593.593,0,0,0-.593.593v.556H9.346v-1.555a.593.593,0,0,0-.593-.593H5.376a.593.593,0,0,0-.593.593v1.555H3.462v-5.5a3.086,3.086,0,0,1-.9.149,3.084,3.084,0,0,1-.9-.149v5.5h0A1.319,1.319,0,0,0,.34,233.081v6.286a1.318,1.318,0,0,0,1.317,1.317h24.4a1.318,1.318,0,0,0,1.318-1.317v-6.286A1.319,1.319,0,0,0,26.057,231.762Z" transform="translate(-0.321 -213.666)" fill="#f76a8c"/>
        <path id="Trazado_114" data-name="Trazado 114" d="M101.785,110.245a.425.425,0,0,0-.426.425v3.091a2.221,2.221,0,0,0,4.442,0V110.67a.425.425,0,0,0-.426-.425Z" transform="translate(-95.724 -104.134)" fill="#f76a8c"/>
        <path id="Trazado_115" data-name="Trazado 115" d="M202.77,110.245a.425.425,0,0,0-.426.425v3.091a2.221,2.221,0,0,0,4.442,0V110.67a.425.425,0,0,0-.426-.425Z" transform="translate(-191.094 -104.134)" fill="#f76a8c"/>
        <path id="Trazado_116" data-name="Trazado 116" d="M303.77,110.245a.425.425,0,0,0-.426.425v3.091a2.222,2.222,0,0,0,4.443,0V110.67a.425.425,0,0,0-.426-.425Z" transform="translate(-286.479 -104.134)" fill="#f76a8c"/>
        <path id="Trazado_117" data-name="Trazado 117" d="M.425,5.333h26.2a.425.425,0,0,0,.254-.767L21.314.423A.428.428,0,0,0,21.06.338H6a.428.428,0,0,0-.254.085L.171,4.566a.425.425,0,0,0,.253.767Z" transform="translate(0 -0.338)" fill="#f76a8c"/>
        <path id="Trazado_118" data-name="Trazado 118" d="M2.561,115.982a2.222,2.222,0,0,0,2.222-2.221v-3.091a.425.425,0,0,0-.426-.425H.766a.425.425,0,0,0-.426.425v3.091A2.222,2.222,0,0,0,2.561,115.982Z" transform="translate(-0.321 -104.134)" fill="#f76a8c"/>
        <path id="Trazado_119" data-name="Trazado 119" d="M408.379,110.245h-3.591a.425.425,0,0,0-.426.425v3.091a2.221,2.221,0,0,0,4.442,0V110.67A.425.425,0,0,0,408.379,110.245Z" transform="translate(-381.882 -104.134)" fill="#f76a8c"/>
      </g>
    </g>
  </g>
</svg>
